<!DOCTYPE svg PUBLIC "-//W3C//DTD SVG 1.1//EN" "http://www.w3.org/Graphics/SVG/1.1/DTD/svg11.dtd">
<!-- Uploaded to: SVG Repo, www.svgrepo.com, Transformed by: SVG Repo Mixer Tools -->
<svg width="206px" height="206px" viewBox="-8.96 -8.96 81.92 81.92" xmlns="http://www.w3.org/2000/svg" xmlns:xlink="http://www.w3.org/1999/xlink" aria-hidden="true" role="img" class="iconify iconify--emojione" preserveAspectRatio="xMidYMid meet" fill="#000000">
<g id="SVGRepo_bgCarrier" stroke-width="0" transform="translate(0,0), scale(1)">
<path transform="translate(-8.96, -8.96), scale(2.56)" d="M16,31.62791471006839C20.08903411420495,32.25282347460055,24.336194121976483,30.165601649807886,27.006240075519948,27.00624007551995C29.516803946408118,24.03558744950307,29.244370042868127,19.88926061923859,29.20749444240018,16C29.171142896872002,12.166011327894424,29.40672381620584,8.011759157390232,26.79949141018224,5.200508589817758C24.12866229663241,2.320684818063023,19.909894525760528,1.3855939866983868,16,1.7590078423289874C12.417567932872839,2.101147447862323,9.45612065091497,4.377661553703525,7.083482855152338,7.0834828551523366C4.889116940284544,9.585998007792389,3.3506355422505862,12.675605835930089,3.512583989061808,15.999999999999998C3.6678246827209593,19.186700868012803,5.920241260414019,21.59562635579072,7.9118673622095805,24.088132637790416C10.3037280121789,27.081529686735283,12.212341756948543,31.0490638697409,16,31.62791471006839" fill="#7ed0ec" strokewidth="0"/>
</g>
<g id="SVGRepo_tracerCarrier" stroke-linecap="round" stroke-linejoin="round"/>
<g id="SVGRepo_iconCarrier">
<circle cx="32" cy="32" r="30" fill="#1f4b84"/>
<path d="M43.8 17.5v5.1h-8.7v23.9H29V22.6h-8.7v-5.1h23.5" fill="#ffffff"/>
</g>
</svg>